<?xml version="1.0" standalone="no"?>
<!DOCTYPE svg PUBLIC "-//W3C//DTD SVG 20010904//EN"
 "http://www.w3.org/TR/2001/REC-SVG-20010904/DTD/svg10.dtd">
<svg version="1.0" xmlns="http://www.w3.org/2000/svg"
 width="512.000000pt" height="512.000000pt" viewBox="0 0 512.000000 512.000000"
 preserveAspectRatio="xMidYMid meet">
<metadata>
Created by potrace 1.14, written by Peter Selinger 2001-2017
</metadata>
<g transform="translate(0.000000,512.000000) scale(0.100000,-0.100000)"
fill="#000000" stroke="none">
<path d="M2942 3798 c-32 -9 -51 -41 -45 -77 4 -29 32 -63 44 -55 5 3 9 2 9
-3 0 -4 64 -8 142 -7 79 1 147 -1 151 -3 5 -3 1 -14 -9 -24 -9 -10 -14 -19
-10 -19 4 0 -4 -15 -18 -33 -15 -19 -26 -37 -26 -41 0 -4 -8 -15 -17 -24 -15
-16 -69 -17 -625 -17 -571 0 -609 1 -614 17 -3 10 -10 18 -16 18 -25 0 6 15
35 17 53 4 56 6 73 25 23 25 20 77 -6 102 -20 20 -30 21 -329 21 -346 0 -345
0 -349 -71 -2 -27 3 -41 19 -55 26 -22 12 -21 217 -23 l163 -1 33 -60 33 -59
-23 -38 c-14 -21 -21 -38 -18 -38 4 0 1 -8 -7 -17 -16 -20 -26 -38 -79 -137
-21 -39 -42 -72 -48 -73 -6 -2 -26 4 -45 12 -19 8 -37 11 -41 8 -3 -4 -6 -2
-6 4 0 5 -6 10 -12 11 -29 4 -63 10 -63 12 0 2 -9 4 -20 6 -11 1 -38 6 -60 10
-88 15 -286 5 -326 -16 -9 -5 -18 -7 -21 -5 -14 14 -256 -92 -299 -131 -8 -8
-20 -14 -26 -14 -6 0 -14 -7 -17 -16 -4 -9 -9 -14 -12 -11 -7 7 -154 -137
-154 -152 0 -6 -4 -11 -9 -11 -9 0 -99 -135 -90 -135 2 -1 -4 -13 -14 -28 -9
-15 -14 -27 -10 -27 5 0 2 -4 -5 -9 -7 -4 -14 -18 -15 -29 -1 -12 -6 -22 -11
-22 -5 0 -7 -3 -4 -6 4 -3 0 -21 -8 -40 -8 -19 -12 -34 -9 -34 3 0 1 -8 -4
-18 -16 -30 -23 -101 -24 -227 0 -130 3 -153 31 -265 14 -53 71 -186 93 -214
10 -13 19 -28 19 -33 0 -4 11 -20 25 -35 14 -15 25 -30 25 -33 0 -9 155 -165
164 -165 4 0 15 -8 26 -17 10 -10 40 -29 67 -43 26 -14 50 -27 53 -30 16 -16
177 -80 184 -73 2 3 11 1 18 -3 7 -5 20 -9 28 -10 8 -2 33 -6 55 -9 47 -8 246
-9 292 -2 119 21 274 81 353 137 15 11 31 20 34 20 21 0 180 158 235 233 23
31 38 57 35 57 -4 0 3 12 17 26 13 14 23 26 22 27 -6 5 10 47 18 47 5 0 8 3 7
8 -1 4 6 31 16 60 10 29 19 61 21 70 2 9 4 17 5 17 2 0 7 21 14 65 16 91 16
91 49 90 91 0 122 -1 126 -5 2 -3 10 0 18 6 7 6 13 7 13 2 0 -5 15 -7 33 -5
l33 4 0 -51 c1 -28 -2 -51 -5 -52 -3 -1 -37 -2 -74 -4 -75 -2 -99 -18 -109
-68 -5 -28 27 -76 54 -78 66 -6 358 -3 374 4 31 13 47 49 39 86 -7 35 -29 50
-77 54 -18 2 -38 6 -44 9 -5 4 -9 39 -9 80 1 72 19 120 77 201 7 10 13 21 13
25 1 9 37 65 48 73 5 3 9 10 9 15 1 17 32 74 40 74 4 0 8 5 8 11 0 6 23 48 50
95 28 47 50 89 50 94 0 6 4 10 9 10 5 0 12 11 15 25 4 14 11 25 16 25 6 0 10
6 10 14 0 7 8 24 19 37 10 13 18 26 18 29 -1 3 15 30 34 60 19 30 40 66 47 80
7 14 18 34 25 45 7 11 33 57 60 103 45 78 67 100 67 67 0 -8 3 -15 8 -15 4 0
18 -21 32 -47 13 -27 39 -71 57 -99 l32 -51 -37 -29 c-47 -38 -192 -184 -192
-194 0 -5 -6 -15 -12 -22 -7 -7 -20 -26 -28 -43 -8 -16 -17 -32 -21 -35 -5 -5
-42 -79 -44 -90 -1 -3 -5 -12 -8 -20 -19 -46 -47 -129 -46 -136 1 -5 0 -11 -1
-14 -8 -20 -12 -92 -12 -195 0 -142 6 -199 25 -245 4 -8 8 -24 10 -35 2 -11 9
-33 15 -48 7 -16 12 -34 12 -42 0 -7 3 -15 8 -17 4 -1 16 -21 27 -43 25 -51
68 -119 78 -123 4 -2 7 -8 7 -13 0 -12 132 -145 185 -186 65 -50 221 -133 250
-133 7 0 17 -5 20 -11 4 -6 13 -8 21 -5 8 3 14 1 14 -5 0 -6 6 -9 13 -6 6 2
23 0 37 -5 68 -26 332 -28 411 -3 10 4 31 8 45 11 15 3 35 9 46 15 10 5 22 7
27 4 5 -3 11 0 13 5 2 6 10 12 18 14 8 1 25 8 38 14 12 7 22 9 22 5 0 -4 4 -3
8 3 4 6 34 27 68 46 34 20 72 44 85 54 56 44 169 165 207 221 37 54 89 155 91
176 0 4 8 21 16 37 8 16 15 32 15 35 0 3 0 6 1 8 4 13 19 80 26 117 11 58 5
350 -8 350 -6 0 -8 10 -11 55 -1 14 -6 25 -12 25 -5 0 -7 3 -3 6 3 4 -3 24
-14 45 -11 22 -17 39 -15 39 12 0 -80 159 -122 212 -31 39 -174 178 -184 178
-5 0 -18 8 -29 19 -35 32 -192 109 -264 128 -100 26 -167 36 -260 36 -68 1
-186 -12 -215 -23 -3 -1 -9 -3 -15 -4 -34 -6 -103 -30 -122 -42 -13 -8 -23
-12 -23 -9 0 3 -9 1 -20 -5 -14 -8 -20 -8 -20 0 0 6 -16 36 -35 66 -19 30 -35
56 -35 59 0 3 -16 29 -35 59 -19 29 -31 56 -28 60 4 3 1 6 -5 6 -7 0 -12 7
-12 15 0 8 -4 15 -9 15 -5 0 -11 9 -14 20 -3 11 -2 20 2 20 4 0 15 18 25 40
10 22 22 40 27 40 5 0 9 4 9 10 0 5 27 53 60 106 45 74 57 101 50 114 -5 10
-7 20 -4 23 3 3 -7 14 -22 24 -25 16 -52 18 -246 18 -119 0 -230 -3 -246 -7z
m118 -457 c0 -3 -12 -26 -26 -51 -40 -69 -62 -107 -83 -142 -10 -18 -47 -83
-83 -144 -36 -61 -68 -117 -72 -125 -4 -8 -12 -23 -19 -34 -45 -73 -87 -147
-87 -151 0 -3 -8 -18 -19 -32 -10 -15 -33 -54 -51 -87 -18 -33 -36 -62 -39
-65 -4 -3 -15 -24 -26 -48 -12 -24 -26 -41 -34 -40 -8 2 -13 7 -12 12 2 5 -1
12 -6 15 -5 3 -22 32 -38 63 -17 32 -33 58 -37 58 -5 0 -8 8 -8 18 0 10 -4 22
-9 28 -9 9 -36 58 -108 194 -19 36 -43 79 -53 95 -16 28 -32 58 -120 220 -54
101 -92 169 -107 191 -7 11 -11 23 -8 26 7 6 1045 5 1045 -1z m-1161 -103 c8
-18 21 -41 29 -50 8 -10 11 -18 6 -18 -5 0 -4 -4 1 -8 6 -4 16 -18 22 -32 7
-14 25 -47 41 -75 16 -27 44 -79 62 -115 19 -36 40 -73 48 -82 9 -10 12 -18 8
-18 -4 0 0 -7 8 -16 9 -8 16 -22 16 -30 0 -8 5 -14 10 -14 6 0 9 -3 8 -7 -2
-12 35 -83 43 -83 4 0 10 -13 14 -30 4 -16 10 -30 14 -30 4 0 14 -15 22 -32 8
-18 43 -84 77 -147 35 -62 61 -116 58 -119 -3 -3 -38 -5 -78 -4 -126 1 -126 1
-124 19 2 9 -4 46 -12 82 -8 36 -15 74 -15 84 -1 9 -5 17 -10 17 -4 0 -5 5 -2
10 3 6 1 10 -4 10 -6 0 -10 3 -9 8 3 14 -25 92 -34 92 -4 0 -7 3 -6 8 4 11
-26 72 -34 72 -5 0 -8 7 -8 15 0 8 -4 15 -10 15 -5 0 -10 5 -10 12 0 6 -22 37
-50 69 -27 32 -50 62 -50 68 0 6 -4 11 -10 11 -5 0 -22 12 -38 28 -38 35 -71
62 -77 62 -3 0 -14 8 -24 17 -20 16 -19 18 32 117 28 56 55 103 59 104 5 2 6
8 2 13 -3 5 -2 9 3 9 4 0 14 -15 22 -32z m-593 -200 c3 -4 14 -3 24 2 10 5 20
6 24 3 4 -4 14 -8 24 -9 47 -7 87 -16 111 -26 14 -6 32 -12 39 -14 21 -4 25
-11 18 -31 -4 -10 -7 -20 -6 -22 1 -2 -2 -7 -7 -10 -5 -3 -18 -24 -30 -46 -23
-45 -97 -185 -116 -218 -7 -12 -16 -25 -22 -29 -5 -4 -7 -8 -2 -8 9 0 -53
-112 -67 -122 -6 -4 -8 -8 -4 -8 4 0 -9 -27 -28 -61 -18 -33 -34 -63 -34 -65
0 -2 -11 -22 -25 -44 -14 -22 -23 -40 -20 -40 3 0 1 -8 -4 -18 -6 -11 -5 -28
4 -49 10 -25 22 -33 49 -38 19 -4 39 -4 45 0 6 3 11 2 11 -3 0 -5 21 -7 48 -5
57 5 125 4 131 -2 2 -3 10 0 18 6 10 9 13 8 13 -1 0 -10 3 -10 15 0 8 7 15 8
15 3 0 -5 21 -8 48 -6 57 5 125 4 131 -2 2 -3 10 0 18 6 10 9 13 8 13 -1 0
-10 3 -10 15 0 8 7 15 8 15 3 0 -5 21 -8 48 -6 26 2 62 5 80 6 17 1 32 0 32
-3 0 -8 85 -4 99 4 6 4 8 -7 5 -34 -7 -57 -53 -214 -65 -218 -5 -2 -9 -10 -9
-19 0 -28 -93 -159 -159 -222 -69 -67 -169 -138 -208 -147 -13 -4 -23 -9 -23
-13 0 -4 -7 -8 -15 -9 -8 -1 -22 -3 -30 -4 -8 -1 -15 -4 -15 -8 0 -4 -28 -13
-62 -20 -35 -7 -70 -15 -78 -17 -32 -9 -196 -9 -239 -1 -25 5 -56 10 -68 12
-12 3 -30 9 -42 15 -11 6 -24 10 -28 9 -4 0 -30 8 -56 20 -27 12 -50 22 -52
22 -14 0 -131 88 -176 132 -58 55 -139 158 -139 175 0 5 -9 19 -20 31 -12 12
-18 22 -15 22 3 0 -1 13 -10 30 -8 16 -15 38 -15 49 0 10 -4 21 -9 23 -5 2
-12 19 -16 38 -3 19 -8 46 -11 60 -3 14 -7 45 -9 70 -2 25 -5 46 -6 48 -2 3
-2 41 0 45 1 1 4 27 7 57 5 61 11 104 14 108 2 1 3 5 4 10 11 46 40 130 49
142 7 8 21 33 32 55 11 22 24 45 30 51 5 6 17 22 25 35 27 41 128 137 187 177
63 43 198 104 207 95 3 -4 6 -2 6 3 0 5 8 11 18 12 21 2 57 10 57 12 0 1 15 3
32 4 18 1 35 5 37 7 8 7 134 4 142 -3z m2649 1 c6 -3 25 -5 43 -4 17 0 32 -3
32 -8 0 -4 6 -7 13 -6 27 5 208 -65 215 -83 2 -4 8 -8 14 -8 27 0 218 -163
218 -186 0 -5 11 -21 25 -36 14 -15 25 -34 25 -43 0 -8 4 -15 8 -15 7 0 31
-39 37 -60 1 -3 6 -16 12 -30 16 -36 27 -63 29 -75 3 -17 4 -25 3 -27 0 -2 4
-15 10 -31 6 -15 13 -62 16 -105 4 -42 8 -83 10 -89 3 -7 1 -13 -3 -13 -4 0
-8 -15 -8 -32 0 -18 -3 -51 -8 -73 -4 -22 -9 -49 -11 -60 -2 -11 -4 -21 -5
-22 -2 -2 -3 -6 -4 -10 -5 -30 -50 -133 -57 -133 -5 0 -9 -5 -9 -11 0 -6 -13
-31 -30 -56 -16 -24 -30 -49 -30 -54 0 -6 -4 -7 -10 -4 -5 3 -10 1 -10 -4 0
-11 -70 -85 -128 -134 -46 -39 -184 -110 -257 -133 -64 -19 -130 -27 -225 -27
-116 1 -160 5 -166 15 -3 4 -9 6 -14 3 -5 -3 -11 -1 -15 5 -4 6 -11 8 -16 4
-9 -5 -31 3 -113 42 -16 8 -33 14 -37 14 -11 0 -103 62 -107 72 -2 4 -9 8 -15
8 -20 0 -153 149 -193 217 -47 80 -84 168 -84 200 0 13 -4 23 -8 23 -4 0 -9
10 -9 23 -2 43 -11 95 -17 105 -3 6 -2 13 3 17 7 3 7 15 1 29 -5 13 -6 27 -3
30 5 5 12 60 17 144 0 12 4 22 7 22 4 0 9 15 12 33 3 18 13 51 23 73 9 21 18
41 18 44 1 3 7 14 13 25 7 11 20 34 30 52 34 60 113 149 186 210 l26 22 40
-65 c23 -36 41 -67 41 -69 0 -2 13 -25 30 -51 16 -26 27 -51 24 -55 -3 -5 -1
-9 5 -9 6 0 18 -17 28 -37 9 -21 23 -44 30 -51 7 -7 13 -20 13 -28 0 -8 5 -14
11 -14 5 0 7 -4 4 -10 -3 -5 -2 -10 3 -10 5 0 13 -8 16 -17 3 -10 12 -27 19
-38 6 -11 41 -71 77 -133 84 -146 121 -166 181 -97 12 13 16 29 12 45 -6 27
-32 82 -42 90 -5 4 -17 26 -65 115 -6 11 -13 22 -16 25 -3 3 -16 25 -29 50
-13 25 -31 53 -39 63 -8 9 -12 17 -8 17 4 0 -7 20 -24 44 -16 25 -30 49 -30
55 0 6 -3 11 -7 11 -5 0 -13 10 -19 23 -20 39 -70 131 -92 167 -12 19 -22 40
-22 47 0 10 63 40 100 47 8 2 26 6 40 10 14 4 42 8 63 10 21 2 40 6 42 7 6 6
149 4 160 -2z m-2225 -161 c0 -4 5 -8 11 -8 28 0 156 -152 204 -242 11 -21 23
-38 28 -38 4 0 7 -6 6 -12 -1 -7 3 -26 10 -43 7 -16 14 -37 16 -45 2 -8 4 -16
5 -17 3 -4 5 -12 14 -63 5 -25 10 -53 12 -62 2 -13 -4 -18 -19 -19 -78 -3
-632 -1 -631 2 2 16 31 76 67 144 58 107 116 216 158 295 19 36 39 68 44 72 6
4 6 8 1 8 -5 0 -1 9 9 20 10 11 15 20 11 20 -4 0 -5 4 -1 10 7 11 55 -8 55
-22z"/>
</g>
</svg>
