<svg id="visual" viewBox="0 0 900 600" width="900" height="600" xmlns="http://www.w3.org/2000/svg" xmlns:xlink="http://www.w3.org/1999/xlink" version="1.1"><path d="M0 315L60 254L120 254L180 332L240 305L300 270L360 323L420 295L480 277L540 346L600 276L660 330L720 336L780 271L840 253L900 341L900 601L840 601L780 601L720 601L660 601L600 601L540 601L480 601L420 601L360 601L300 601L240 601L180 601L120 601L60 601L0 601Z" fill="#00adb5"></path><path d="M0 325L60 312L120 343L180 393L240 313L300 305L360 320L420 312L480 343L540 362L600 366L660 356L720 342L780 302L840 337L900 319L900 601L840 601L780 601L720 601L660 601L600 601L540 601L480 601L420 601L360 601L300 601L240 601L180 601L120 601L60 601L0 601Z" fill="#278fa2"></path><path d="M0 406L60 409L120 440L180 439L240 382L300 440L360 417L420 408L480 384L540 411L600 377L660 444L720 415L780 392L840 403L900 450L900 601L840 601L780 601L720 601L660 601L600 601L540 601L480 601L420 601L360 601L300 601L240 601L180 601L120 601L60 601L0 601Z" fill="#3a7288"></path><path d="M0 509L60 493L120 509L180 457L240 467L300 488L360 491L420 482L480 481L540 489L600 481L660 452L720 479L780 505L840 440L900 476L900 601L840 601L780 601L720 601L660 601L600 601L540 601L480 601L420 601L360 601L300 601L240 601L180 601L120 601L60 601L0 601Z" fill="#3f5768"></path><path d="M0 525L60 510L120 512L180 554L240 524L300 529L360 536L420 548L480 564L540 514L600 532L660 495L720 558L780 541L840 510L900 528L900 601L840 601L780 601L720 601L660 601L600 601L540 601L480 601L420 601L360 601L300 601L240 601L180 601L120 601L60 601L0 601Z" fill="#393e46"></path></svg>